# xmcd
#
# Track frame offsets: 
#        150
#        21000
#        33955
#        51475
#        67827
#        82077
#        100515
#        120052
#        135560
#        152607
#        173897
#
# Disc length: 2577 seconds
#
# Revision: 10
# Processed by: cddbd v1.5.2PL0 Copyright (c) Steve Scherf et al.
# Submitted via: ExactAudioCopy v1.2
#
DISCID=7c0a0f0b
DTITLE=Kenny Chesney - All I Want For Christmas Is A Real Good Tan
DYEAR=2003
DGENRE=Country
TTITLE0=All I Want For Christmas Is A Real Good Tan
TTITLE1=Jingle Bells
TTITLE2=I'll Be Home For Christmas
TTITLE3=Kenny Chesney feat. Randy Owen - Christmas In Dixie
TTITLE4=Thank God For Kids
TTITLE5=Silver Bells
TTITLE6=Just A Kid
TTITLE7=The Angel At The Top Of My Tree
TTITLE8=Kenny Chesney with Willie Nelson - Pretty Paper
TTITLE9=Kenny Chesneywith the Grigsby Twins - Silent Night
TTITLE10=O Little Town Of Bethlehem
EXTD=YEAR: 2003
EXTT0=
EXTT1=
EXTT2=
EXTT3=
EXTT4=
EXTT5=
EXTT6=
EXTT7=
EXTT8=
EXTT9=
EXTT10=
PLAYORDER=
